<?xml version="1.0" encoding="UTF-8"?>
<svg version="1.1" viewBox="0 0 1109 1142" width="1280" height="1280" xmlns="http://www.w3.org/2000/svg">
<path transform="translate(0)" d="m0 0h1109v1142h-1109z" fill="#FDFDFD"/>
<path transform="translate(570,75)" d="m0 0h25l29 3 23 4 24 6 33 11 21 9 21 10 21 12 24 16 16 12 11 9 10 9 8 7 19 19 7 8 14 17 13 18 10 15 9 15 12 22 12 27 9 25 6 19 6 24 5 29 3 29v54l-3 30-5 28-7 28-8 24-11 26-13 25-14 22-10 13-9 11-18 20-10 10-7 8-12 11-14 12-16 12-24 16-19 11-21 11-26 11-22 8-29 8-29 6-32 4-14 1h-253l-23-3-21-5-22-8-21-11-12-8-10-8-10-9-10-11-12-18-8-17-6-20-3-19v-23l6 4 14 10 19 10 23 9 20 6 21 5 25 4 36 3h239l31-4 27-6 27-8 25-10 21-10 17-10 17-12 10-8 20-18 9-10 12-15 10-15 12-21 11-22 10-26 5-20 4-29 1-12v-51l-3-27-6-29-6-20-10-25-11-21-7-11-10-14-11-13-9-10-10-10-11-9-17-13-19-12-27-14-23-9-26-8-24-5-24-3-44-2-57-2h-184l-26 4-23 6-21 7-21 9-23 12-14 9-7 4v-11l4-22 6-21 10-23 9-15 9-12 9-10 10-10 15-11 16-9 18-8 25-7 19-3z" fill="#2D4962"/>
<path transform="translate(297,212)" d="m0 0 1 3-4 16-1 7v17l3 12 5 10 7 8 11 7 13 5 16 3h40l151-3h26l21 2 22 4 21 6 21 9 14 8 14 10 10 9 12 12 10 13 9 15 8 17 6 19 3 14 2 18v20l-3 24-5 19-6 17-10 21-12 18-12 14-8 8-13 10-18 11-18 8-20 6-15 3-10 1-183 3h-63l-21-3-20-5-19-7-20-10-15-10-10-8-12-11-3-3v-2h-2l-13-17-9-16-8-16-6-15-4-15v-18l4-7 5 2 11 8 17 10 23 10 30 10 34 8 21 3 14 1 233 2 14-2 14-5 11-8 8-9 6-13 3-13 1-13-2-13-4-10-7-9-8-6-12-6-14-4-6-1-234-1-19-2-23-5-19-7-17-8-16-10-13-10-9-8-14-16-10-15-8-16-7-18-5-23v-10l7-7 14-9 23-12 21-9 30-11z" fill="#999"/>
<path transform="translate(573,997)" d="m0 0h47l10 2 8 4 6 5 6 10 3 8 1 6v24l-3 12-6 11-5 6-10 6-6 2h-51z" fill="#154059"/>
<path transform="translate(359,997)" d="m0 0h52l10 2 8 5 6 8 2 5v15l-5 10-5 4-2 2 7 6 2 5 1 6 1 21 1 4h2v3h-23l-1-4-2-26-2-4-5-2-28-1v37h-19z" fill="#153F58"/>
<path transform="translate(151,997)" d="m0 0h26l15 27 4 7v2l3-3 16-29 3-4h25v96h-18l-1-78-18 34-8 14-4-4-14-26-10-18-1 78h-18z" fill="#133E58"/>
<path transform="translate(739,995)" d="m0 0h20l10 3 10 6 7 8 4 8 1 7h-20l-6-10-8-4-11-1-11 4-7 8-4 11-1 15 2 11 4 8 7 6 9 3h8l9-3 5-4 5-10 1-3h-22v-16h40v51h-13l-2-7-1-3-7 7-8 4-8 2h-12l-12-3-11-7-7-8-6-12-2-10v-20l3-12 5-10 9-10 10-6z" fill="#143F58"/>
<path transform="translate(946,997)" d="m0 0h23l5 12 21 60 8 22v2h-22l-6-18h-35l-6 18h-22l7-21 19-53z" fill="#164059"/>
<path transform="translate(289,997)" d="m0 0h23l5 12 20 57 9 25v2h-22l-6-18h-35l-6 18h-22l7-21 19-53z" fill="#164059"/>
<path transform="translate(94,994)" d="m0 0 16 2 12 6 8 9 3 10v5h-19l-5-10-6-3-4-1h-9l-8 3-3 3-1 6 2 5 10 4 28 7 10 5 6 8 2 6v12l-3 8-4 6-8 6-10 4-7 1h-13l-14-3-10-6-6-7-4-11v-5h20l3 9 6 4 3 1h16l9-3 2-10-3-5-11-4-25-6-10-5-5-6-3-7v-15l5-10 5-5 8-5 7-2z" fill="#154059"/>
<path transform="translate(447,997)" d="m0 0h77v17h-28v79h-21v-79h-28z" fill="#1B445C"/>
<path transform="translate(839,997)" d="m0 0h78v17l-28 1-1 78h-20v-79h-29z" fill="#154059"/>
<path transform="translate(1015,997)" d="m0 0h20v79h48v17h-68z" fill="#164059"/>
<path transform="translate(593,1014)" d="m0 0h24l8 3 6 7 3 12v16l-3 11-5 8-5 4-8 2h-20z" fill="#FDFDFD"/>
<path transform="translate(809,997)" d="m0 0h20v96h-20z" fill="#19425A"/>
<path transform="translate(668,997)" d="m0 0h20v96h-20z" fill="#123D57"/>
<path transform="translate(378,1014)" d="m0 0h29l7 3 3 5v10l-3 5-9 3h-26l-1-1z" fill="#FDFDFD"/>
<path transform="translate(300,1020)" d="m0 0 2 2 10 32v3h-23l2-10z" fill="#FDFDFD"/>
<path transform="translate(957,1020)" d="m0 0 2 3 10 31v3h-23l2-10z" fill="#FDFDFD"/>
</svg>
